<?xml version="1.0" encoding="UTF-8"?>
<svg id="Layer_2" data-name="Layer 2" xmlns="http://www.w3.org/2000/svg" viewBox="0 0 347.16 155.09">
  <defs>
    <style>
      .cls-1 {
        font-size: 76.41px;
      }

      .cls-1, .cls-2 {
        font-family: LeagueSpartan-Bold, 'League Spartan';
        font-weight: 700;
      }

      .cls-1, .cls-2, .cls-3 {
        fill: #3cb54a;
      }

      .cls-4 {
        fill: #2bb673;
      }

      .cls-2 {
        font-size: 90.07px;
      }
    </style>
  </defs>
  <g id="Layer_1-2" data-name="Layer 1">
    <g>
      <g>
        <g>
          <polygon class="cls-3" points="347.16 52.08 346.86 52.59 340.54 63.54 333.47 59.45 256.9 15.25 173.25 63.54 166.63 52.08 188.74 39.31 188.4 39.31 188.4 17.53 205.27 17.53 205.27 29.77 256.82 0 256.9 .13 256.97 0 333.47 44.17 346.86 51.9 347.16 52.08"/>
          <polygon class="cls-3" points="346.99 51.86 346.99 83.73 333.6 83.73 333.6 44.13 346.99 51.86"/>
        </g>
        <text class="cls-2" transform="translate(217.87 128.74)"><tspan x="0" y="0">ur</tspan></text>
        <text class="cls-1" transform="translate(163.46 127.75)"><tspan x="0" y="0">N</tspan></text>
        <g>
          <polygon class="cls-3" points="346.99 63.76 346.99 95.63 333.6 95.63 333.6 56.03 346.99 63.76"/>
          <path class="cls-3" d="M318.9,110.77c0,2.94.55,5.29,1.67,7.05,1.11,1.76,2.97,2.63,5.58,2.63s4.56-.88,5.65-2.63c1.1-1.76,1.64-4.11,1.64-7.05v-17.11h13.51v18.56c0,3.96-.82,7.41-2.45,10.34-1.64,2.93-4,5.19-7.09,6.78-3.09,1.59-6.85,2.39-11.26,2.39s-8.12-.8-11.21-2.39c-3.09-1.59-5.45-3.85-7.07-6.78-1.62-2.93-2.43-6.37-2.43-10.34v-18.56h13.47v17.11Z"/>
        </g>
      </g>
      <g>
        <text class="cls-2" transform="translate(40.99 124.67)"><tspan x="0" y="0">c</tspan></text>
        <text class="cls-1" transform="translate(0 125.66)"><tspan x="0" y="0">E</tspan></text>
      </g>
      <g>
        <circle class="cls-4" cx="106.32" cy="104.46" r="24.59"/>
        <circle class="cls-4" cx="121.14" cy="62.82" r="14.82"/>
        <circle class="cls-4" cx="142.27" cy="81.2" r="6.3"/>
      </g>
    </g>
  </g>
</svg>